<svg xmlns="http://www.w3.org/2000/svg" xmlns:xlink="http://www.w3.org/1999/xlink" viewBox="0 0 759.23 288"><defs><style>.cls-1,.cls-10{fill:none;}.cls-2{clip-path:url(#clip-path);}.cls-3{fill:url(#linear-gradient);}.cls-4,.cls-8{fill:#fff;}.cls-4{opacity:0.17;}.cls-5{fill:#e3e3e3;opacity:0.58;}.cls-6{fill:#f7f7f7;}.cls-7{fill:#33a1b1;}.cls-9{fill:#97d4d6;}.cls-10{stroke:#33a1b1;stroke-miterlimit:10;stroke-width:7px;}.cls-11{fill:#515151;opacity:0.55;}</style><clipPath id="clip-path"><rect class="cls-1" x="150.64" width="452.15" height="288"/></clipPath><linearGradient id="linear-gradient" x1="208.09" y1="224.57" x2="550.76" y2="58.57" gradientUnits="userSpaceOnUse"><stop offset="0" stop-color="#65bbb7"/><stop offset="1" stop-color="#438cbc"/></linearGradient></defs><title>background</title><g id="Layer_2" data-name="Layer 2"><g id="background"><g class="cls-2"><rect class="cls-3" x="146.04" width="456.76" height="288"/><rect class="cls-3" x="146.04" width="456.76" height="288"/><path class="cls-4" d="M248,167.21a14.7,14.7,0,0,1,8.21-13.2l36.42-18a86.55,86.55,0,0,1,10.14-4.23L213.57,76.63a68.22,68.22,0,0,0-71.79,0L3.48,162.22A7.33,7.33,0,0,0,0,168.46V188.8H362l-5.87-21.59Z"/><path class="cls-5" d="M415,158.05l-44.62-22a87.93,87.93,0,0,0-67.67-4.23,86.55,86.55,0,0,0-10.14,4.23l-36.42,18a14.7,14.7,0,0,0-8.21,13.2H418.15Z"/><path class="cls-6" d="M187.87,148.4,113.58,198H359l-74.28-49.6A87.14,87.14,0,0,0,187.87,148.4Z"/><rect class="cls-7" x="146.04" y="198" width="454.6" height="90"/><path class="cls-8" d="M388.91,122,300,165.79A35.91,35.91,0,0,0,280,198H695.33l-7.62-22.33L578.8,122A214.65,214.65,0,0,0,388.91,122Z"/><polygon class="cls-9" points="284.46 222.37 276.7 226.83 260.53 230.17 219.37 232 201.2 226.33 214.7 245.17 262.7 241.83 284.69 231.64 284.46 222.37"/><polygon class="cls-6" points="260.53 230.17 276.7 226.83 284.46 222.37 269.53 215.33 242.37 214.33 220.87 211.33 205.2 217.77 201.2 226.33 219.37 232 260.53 230.17"/><polygon class="cls-6" points="490.14 229.25 500.14 221 486.89 205.75 481.14 198 468.39 212.25 465.39 224.25 474.76 231.63 490.14 229.25"/><polygon class="cls-9" points="490.14 229.25 474.76 231.63 465.39 224.25 465.39 235.75 477.64 239.75 493.01 239.75 500.14 233 500.14 221 490.14 229.25"/><polygon class="cls-6" points="415.27 229.44 402.39 220.63 377.45 226 376.83 230.19 399.45 232.13 415.27 229.44"/><polygon class="cls-9" points="399.45 232.13 376.83 230.19 382.26 237.56 408.14 238 413.76 235.88 415.27 229.44 399.45 232.13"/><path class="cls-10" d="M120.25,196c6.14,0,6.14,4,12.28,4s6.15-4,12.29-4,6.14,4,12.28,4,6.14-4,12.28-4,6.15,4,12.29,4,6.14-4,12.29-4,6.14,4,12.28,4,6.14-4,12.28-4,6.15,4,12.29,4,6.15-4,12.29-4,6.14,4,12.28,4,6.15-4,12.29-4,6.14,4,12.29,4,6.14-4,12.28-4,6.14,4,12.29,4,6.14-4,12.28-4,6.15,4,12.29,4,6.14-4,12.29-4,6.14,4,12.28,4,6.15-4,12.29-4,6.14,4,12.29,4,6.14-4,12.28-4,6.15,4,12.29,4,6.15-4,12.29-4,6.15,4,12.29,4,6.14-4,12.29-4,6.14,4,12.29,4,6.14-4,12.28-4,6.15,4,12.29,4,6.15-4,12.29-4,6.15,4,12.29,4,6.15-4,12.29-4,6.14,4,12.29,4,6.14-4,12.29-4,6.14,4,12.28,4,6.15-4,12.29-4,6.14,4,12.28,4,6.15-4,12.29-4,6.15,4,12.29,4,6.15-4,12.29-4,6.15,4,12.29,4,6.15-4,12.29-4,6.15,4,12.29,4,6.15-4,12.29-4,6.15,4,12.29,4,6.15-4,12.3-4,6.14,4,12.28,4,6.15-4,12.29-4,6.15,4,12.3,4,6.15-4,12.29-4,6.15,4,12.3,4,6.15-4,12.3-4"/></g><rect class="cls-11" x="150.64" width="452.15" height="288"/></g></g></svg>