<svg xmlns="http://www.w3.org/2000/svg" xmlns:xlink="http://www.w3.org/1999/xlink" viewBox="0 0 1414.07 945.59"><defs><style>.cls-1,.cls-10{fill:none;}.cls-2{clip-path:url(#clip-path);}.cls-3{fill:url(#linear-gradient);}.cls-4,.cls-7{fill:#fff;}.cls-4{opacity:0.17;}.cls-5{fill:#e3e3e3;opacity:0.58;}.cls-6{fill:#f7f7f7;}.cls-8{fill:#33a1b1;}.cls-9{fill:#97d4d6;}.cls-10{stroke:#33a1b1;stroke-miterlimit:10;stroke-width:15.07px;}.cls-11{opacity:0.81;}.cls-12{fill:#fbffff;}.cls-13{opacity:0.65;}.cls-14{fill:#515151;opacity:0.11;}</style><clipPath id="clip-path"><rect class="cls-1" x="67.26" y="153.62" width="995.86" height="701.14"/></clipPath><linearGradient id="linear-gradient" x1="197.17" y1="485.39" x2="949.79" y2="120.8" gradientUnits="userSpaceOnUse"><stop offset="0" stop-color="#65bbb7"/><stop offset="1" stop-color="#438cbc"/></linearGradient></defs><title>background3</title><g id="Layer_2" data-name="Layer 2"><g id="background"><g class="cls-2"><rect class="cls-3" x="57.07" width="1010.81" height="616.85"/><rect class="cls-3" x="57.07" width="1010.81" height="616.85"/><path class="cls-4" d="M568.66,325.09c0-4.49,3.32-8.59,8.56-10.57l38-14.38a107,107,0,0,1,10.59-3.39l-93-44.19c-22.94-10.91-51.94-10.91-74.88,0L313.65,321.1a5.73,5.73,0,0,0-3.63,5v16.29H687.58l-6.12-17.29Z"/><path class="cls-5" d="M742.9,317.76l-46.54-17.62a117.27,117.27,0,0,0-70.57-3.39,107,107,0,0,0-10.59,3.39l-38,14.38c-5.24,2-8.56,6.08-8.56,10.57h177.5Z"/><path class="cls-6" d="M536.69,299.86l-66.32,39.45H672.21l-66.32-39.45A67.65,67.65,0,0,0,536.69,299.86Z"/><path class="cls-7" d="M760.09,273.33l-147,47.31a9.24,9.24,0,0,0-6.4,8.79v.79a9.09,9.09,0,0,0,9.09,9.09h449A9.1,9.1,0,0,0,1072.9,326h0a9.12,9.12,0,0,0-5.27-4.44L917.81,273.33A257.31,257.31,0,0,0,760.09,273.33Z"/><rect class="cls-8" x="57.07" y="330.93" width="1006.04" height="614.66"/><polygon class="cls-9" points="388.66 478.81 371.5 488.39 335.72 495.53 244.62 499.45 204.42 487.32 234.29 527.65 340.52 520.52 389.17 498.68 388.66 478.81"/><polygon class="cls-6" points="335.72 495.53 371.5 488.39 388.66 478.81 355.64 463.76 295.52 461.62 247.94 455.19 213.26 468.97 204.42 487.32 244.62 499.45 335.72 495.53"/><polygon class="cls-6" points="870.72 547.33 892.85 529.66 863.53 497 850.8 480.4 822.59 510.92 815.95 536.62 836.69 552.42 870.72 547.33"/><polygon class="cls-9" points="870.72 547.33 836.69 552.42 815.95 536.62 815.95 561.25 843.06 569.82 877.08 569.82 892.85 555.36 892.85 529.66 870.72 547.33"/><polygon class="cls-6" points="652.88 491.42 624.38 472.54 569.2 484.05 567.81 493.02 617.88 497.17 652.88 491.42"/><polygon class="cls-9" points="617.88 497.17 567.81 493.02 579.85 508.82 637.11 509.76 649.56 505.2 652.88 491.42 617.88 497.17"/><path class="cls-10" d="M0,326.6c13.6,0,13.6,8.66,27.19,8.66s13.6-8.66,27.19-8.66,13.6,8.66,27.2,8.66,13.59-8.66,27.19-8.66,13.59,8.66,27.19,8.66,13.6-8.66,27.19-8.66,13.6,8.66,27.19,8.66,13.6-8.66,27.2-8.66,13.59,8.66,27.19,8.66,13.59-8.66,27.19-8.66,13.6,8.66,27.19,8.66,13.6-8.66,27.2-8.66,13.59,8.66,27.19,8.66,13.59-8.66,27.19-8.66,13.6,8.66,27.19,8.66,13.6-8.66,27.2-8.66,13.59,8.66,27.19,8.66,13.6-8.66,27.19-8.66,13.6,8.66,27.2,8.66,13.59-8.66,27.19-8.66,13.59,8.66,27.19,8.66,13.6-8.66,27.2-8.66,13.59,8.66,27.19,8.66,13.59-8.66,27.19-8.66,13.59,8.66,27.19,8.66S693.4,326.6,707,326.6s13.59,8.66,27.19,8.66,13.6-8.66,27.19-8.66,13.6,8.66,27.19,8.66,13.6-8.66,27.19-8.66,13.6,8.66,27.2,8.66,13.6-8.66,27.19-8.66,13.6,8.66,27.19,8.66,13.6-8.66,27.2-8.66,13.59,8.66,27.19,8.66,13.6-8.66,27.19-8.66,13.6,8.66,27.2,8.66,13.6-8.66,27.19-8.66,13.6,8.66,27.2,8.66,13.6-8.66,27.19-8.66,13.6,8.66,27.2,8.66,13.6-8.66,27.2-8.66,13.59,8.66,27.19,8.66,13.6-8.66,27.19-8.66,13.6,8.66,27.2,8.66,13.6-8.66,27.19-8.66,13.6,8.66,27.2,8.66,13.6-8.66,27.2-8.66,13.6,8.66,27.2,8.66,13.6-8.66,27.2-8.66,13.6,8.66,27.2,8.66,13.6-8.66,27.2-8.66"/><g class="cls-11"><path class="cls-12" d="M867.57,252.3H904a6.1,6.1,0,0,1,6.1,6.1v0a0,0,0,0,1,0,0h-48.6a0,0,0,0,1,0,0v0A6.1,6.1,0,0,1,867.57,252.3Z"/><path class="cls-12" d="M878.85,245.19h18.53a7.09,7.09,0,0,1,7.09,7.09v.3a0,0,0,0,1,0,0h-32.7a0,0,0,0,1,0,0v-.3A7.09,7.09,0,0,1,878.85,245.19Z"/><ellipse class="cls-12" cx="890.12" cy="245.81" rx="6.99" ry="6.77"/></g><g class="cls-13"><path class="cls-12" d="M606.25,268.49h36.39a6.1,6.1,0,0,1,6.1,6.1v0a0,0,0,0,1,0,0h-48.6a0,0,0,0,1,0,0v0A6.1,6.1,0,0,1,606.25,268.49Z"/><path class="cls-12" d="M615.26,261.65h20.52a7.36,7.36,0,0,1,7.36,7.36v0a0,0,0,0,1,0,0H607.91a0,0,0,0,1,0,0v0a7.36,7.36,0,0,1,7.36-7.36Z"/><path class="cls-12" d="M624.06,257.54H633a4.17,4.17,0,0,1,4.17,4.17v.67a0,0,0,0,1,0,0H619.89a0,0,0,0,1,0,0v-.67a4.17,4.17,0,0,1,4.17-4.17Z"/><ellipse class="cls-12" cx="631.94" cy="260.76" rx="5.8" ry="5.62"/></g><path class="cls-12" d="M383.45,271H446a10.5,10.5,0,0,1,10.5,10.5v0a0,0,0,0,1,0,0H373a0,0,0,0,1,0,0v0A10.5,10.5,0,0,1,383.45,271Z"/><path class="cls-12" d="M398.95,259.24h35.29a12.65,12.65,0,0,1,12.65,12.65v0a0,0,0,0,1,0,0H386.3a0,0,0,0,1,0,0v0A12.65,12.65,0,0,1,398.95,259.24Z"/><path class="cls-12" d="M414.08,252.18h15.33a7.17,7.17,0,0,1,7.17,7.17v1.16a0,0,0,0,1,0,0H406.91a0,0,0,0,1,0,0v-1.16a7.17,7.17,0,0,1,7.17-7.17Z"/><ellipse class="cls-12" cx="427.62" cy="257.72" rx="9.98" ry="9.66"/></g><rect class="cls-14" x="67.26" y="153.62" width="995.86" height="701.14"/></g></g></svg>