<svg xmlns="http://www.w3.org/2000/svg" xmlns:xlink="http://www.w3.org/1999/xlink" viewBox="0 0 1490.34 945.59"><defs><style>.cls-1,.cls-10{fill:none;}.cls-2{clip-path:url(#clip-path);}.cls-3{fill:url(#linear-gradient);}.cls-4,.cls-7{fill:#fff;}.cls-4{opacity:0.17;}.cls-5{fill:#e3e3e3;opacity:0.58;}.cls-6{fill:#f7f7f7;}.cls-8{fill:#33a1b1;}.cls-9{fill:#97d4d6;}.cls-10{stroke:#33a1b1;stroke-miterlimit:10;stroke-width:15.24px;}.cls-11{opacity:0.81;}.cls-12{fill:#fbffff;}.cls-13{opacity:0.65;}.cls-14{fill:#515151;opacity:0.11;}</style><clipPath id="clip-path"><rect class="cls-1" x="143.52" y="153.62" width="995.86" height="701.14"/></clipPath><linearGradient id="linear-gradient" x1="273.43" y1="485.39" x2="1026.05" y2="120.8" gradientUnits="userSpaceOnUse"><stop offset="0" stop-color="#65bbb7"/><stop offset="1" stop-color="#438cbc"/></linearGradient></defs><title>background3_1</title><g id="Layer_2" data-name="Layer 2"><g id="background"><g class="cls-2"><rect class="cls-3" x="133.34" width="1010.81" height="616.85"/><rect class="cls-3" x="133.34" width="1010.81" height="616.85"/><path class="cls-4" d="M459.74,353.27c0-9.26,5.89-17.71,15.21-21.8l67.52-29.66a174.16,174.16,0,0,1,18.81-7L396,203.68c-40.78-22.48-92.33-22.48-133.11,0L6.44,345A11.89,11.89,0,0,0,0,355.34v33.59H671.12l-10.88-35.66Z"/><path class="cls-5" d="M769.46,338.16l-82.73-36.35a181.42,181.42,0,0,0-125.45-7,174.16,174.16,0,0,0-18.81,7L475,331.47c-9.32,4.09-15.21,12.54-15.21,21.8H775.25Z"/><path class="cls-6" d="M399.93,316.76,275.36,390.85H654.45L529.88,316.76A127.09,127.09,0,0,0,399.93,316.76Z"/><path class="cls-7" d="M828.43,230.09,535,359a4.2,4.2,0,0,0-2.5,3.84v25.22a2.77,2.77,0,0,0,2.77,2.77H1170a2.76,2.76,0,0,0,2.59-3.76l-9.92-25.89a2.71,2.71,0,0,0-1.47-1.54L866.29,230.09A47.06,47.06,0,0,0,828.43,230.09Z"/><rect class="cls-8" x="133.34" y="376.88" width="1006.04" height="568.72"/><polygon class="cls-9" points="464.93 478.81 447.76 488.39 411.99 495.53 320.88 499.45 280.68 487.32 310.56 527.65 416.78 520.52 465.44 498.68 464.93 478.81"/><polygon class="cls-6" points="411.99 495.53 447.76 488.39 464.93 478.81 431.9 463.76 371.78 461.62 324.2 455.19 289.53 468.97 280.68 487.32 320.88 499.45 411.99 495.53"/><polygon class="cls-6" points="946.99 547.33 969.12 529.66 939.79 497 927.07 480.4 898.85 510.92 892.21 536.62 912.96 552.42 946.99 547.33"/><polygon class="cls-9" points="946.99 547.33 912.96 552.42 892.21 536.62 892.21 561.25 919.32 569.82 953.35 569.82 969.12 555.36 969.12 529.66 946.99 547.33"/><polygon class="cls-6" points="729.14 491.42 700.65 472.54 645.46 484.05 644.08 493.02 694.15 497.17 729.14 491.42"/><polygon class="cls-9" points="694.15 497.17 644.08 493.02 656.11 508.82 713.37 509.76 725.82 505.2 729.14 491.42 694.15 497.17"/><path class="cls-10" d="M76.27,372.16c13.59,0,13.59,8.76,27.19,8.76s13.59-8.76,27.19-8.76,13.59,8.76,27.19,8.76,13.6-8.76,27.19-8.76,13.6,8.76,27.2,8.76,13.59-8.76,27.19-8.76,13.59,8.76,27.19,8.76,13.6-8.76,27.19-8.76,13.6,8.76,27.19,8.76,13.6-8.76,27.2-8.76,13.59,8.76,27.19,8.76,13.6-8.76,27.19-8.76,13.6,8.76,27.19,8.76,13.6-8.76,27.2-8.76,13.59,8.76,27.19,8.76,13.6-8.76,27.19-8.76,13.6,8.76,27.2,8.76,13.59-8.76,27.19-8.76,13.59,8.76,27.19,8.76,13.6-8.76,27.19-8.76,13.6,8.76,27.2,8.76,13.59-8.76,27.19-8.76,13.6,8.76,27.19,8.76,13.6-8.76,27.19-8.76,13.6,8.76,27.2,8.76,13.59-8.76,27.18-8.76,13.6,8.76,27.2,8.76,13.59-8.76,27.19-8.76,13.59,8.76,27.19,8.76,13.59-8.76,27.19-8.76,13.6,8.76,27.2,8.76,13.59-8.76,27.19-8.76,13.59,8.76,27.19,8.76,13.6-8.76,27.19-8.76,13.6,8.76,27.2,8.76,13.59-8.76,27.19-8.76,13.6,8.76,27.2,8.76,13.59-8.76,27.19-8.76,13.6,8.76,27.2,8.76,13.59-8.76,27.19-8.76,13.6,8.76,27.2,8.76,13.59-8.76,27.19-8.76,13.6,8.76,27.2,8.76,13.59-8.76,27.19-8.76,13.6,8.76,27.19,8.76,13.6-8.76,27.2-8.76,13.6,8.76,27.2,8.76,13.6-8.76,27.2-8.76,13.6,8.76,27.19,8.76,13.6-8.76,27.2-8.76,13.61,8.76,27.21,8.76,13.6-8.76,27.2-8.76"/><g class="cls-11"><path class="cls-12" d="M939.77,225.35H994a9.1,9.1,0,0,1,9.1,9.1v0a0,0,0,0,1,0,0H930.66a0,0,0,0,1,0,0v0a9.1,9.1,0,0,1,9.1-9.1Z"/><path class="cls-12" d="M956.59,214.74h27.63a10.57,10.57,0,0,1,10.57,10.57v.44a0,0,0,0,1,0,0H946a0,0,0,0,1,0,0v-.44a10.57,10.57,0,0,1,10.57-10.57Z"/><ellipse class="cls-12" cx="973.4" cy="215.66" rx="10.42" ry="10.09"/></g><g class="cls-13"><path class="cls-12" d="M607.91,266.63h54.27a9.1,9.1,0,0,1,9.1,9.1v0a0,0,0,0,1,0,0H598.8a0,0,0,0,1,0,0v0A9.1,9.1,0,0,1,607.91,266.63Z"/><path class="cls-12" d="M621.35,256.42H652a11,11,0,0,1,11,11v0a0,0,0,0,1,0,0H610.38a0,0,0,0,1,0,0v0A11,11,0,0,1,621.35,256.42Z"/><path class="cls-12" d="M634.47,250.29h13.3a6.22,6.22,0,0,1,6.22,6.22v1a0,0,0,0,1,0,0H628.25a0,0,0,0,1,0,0v-1a6.22,6.22,0,0,1,6.22-6.22Z"/><ellipse class="cls-12" cx="646.22" cy="255.1" rx="8.66" ry="8.38"/></g><path class="cls-12" d="M294.78,224.84H400.29a17.7,17.7,0,0,1,17.7,17.7v0a0,0,0,0,1,0,0H277.08a0,0,0,0,1,0,0v0A17.7,17.7,0,0,1,294.78,224.84Z"/><path class="cls-12" d="M320.91,205h59.5a21.33,21.33,0,0,1,21.33,21.33v.08a0,0,0,0,1,0,0H299.58a0,0,0,0,1,0,0v-.08A21.33,21.33,0,0,1,320.91,205Z"/><path class="cls-12" d="M346.43,193.08h25.85a12.09,12.09,0,0,1,12.09,12.09v2a0,0,0,0,1,0,0h-50a0,0,0,0,1,0,0v-2A12.09,12.09,0,0,1,346.43,193.08Z"/><ellipse class="cls-12" cx="369.26" cy="202.42" rx="16.83" ry="16.29"/></g><rect class="cls-14" x="143.52" y="153.62" width="995.86" height="700.48"/></g></g></svg>