<svg xmlns="http://www.w3.org/2000/svg" viewBox="0 0 450.7 288"><defs><style>.cls-1{fill:#65bbb7;opacity:0.55;}.cls-2{fill:#2f9fa8;}.cls-3{fill:#52afbd;}.cls-4{fill:#76c0cb;}.cls-5{fill:#fff;}.cls-6{fill:#6ebcc8;}</style></defs><title>background2</title><g id="Layer_2" data-name="Layer 2"><g id="penguin"><rect class="cls-1" x="0.51" width="450" height="288"/><path class="cls-2" d="M273.51,24.33c-44,8.12-137.79-15.33-157.89,0S78.57,67.38,56.37,76.52s-38.85,28.73-40.85,38.61-30.68,113.32-4.68,134.93,52.66,35.61,90.33,28.27,65.46-11.33,103.23-10,75.77,14.67,115.11,6,146-37.42,122-117S396.18,83,388.84,63s-22-44.83-51.33-50.75S298.84,19.67,273.51,24.33Z"/><rect class="cls-3" x="2.82" y="51.29" width="50" height="8.25"/><rect class="cls-4" x="2.82" y="12.25" width="50" height="39.04"/><path class="cls-5" d="M55.13,35.8a4.91,4.91,0,0,1-7.81,3.78c-2.7-2-8.28-4.44-17.5-.95C16,43.88,6.32,41.52,6.32,41.52A5.81,5.81,0,0,1,.51,35.7V11.77A11.77,11.77,0,0,1,12.28,0H43.36A11.77,11.77,0,0,1,55.13,11.77v24Z"/><rect class="cls-3" x="398.39" y="60.53" width="50" height="8.25"/><rect class="cls-6" x="398.39" y="21.49" width="50" height="39.04"/><path class="cls-5" d="M450.7,45a4.91,4.91,0,0,1-7.81,3.79c-2.7-2-8.28-4.45-17.5-1-13.88,5.25-23.5,2.89-23.5,2.89A5.81,5.81,0,0,1,396.08,45V21A11.77,11.77,0,0,1,407.85,9.24h31.08A11.77,11.77,0,0,1,450.7,21V45Z"/></g></g></svg>