<?xml version="1.0" encoding="utf-8"?>
<!-- Generator: Adobe Illustrator 22.0.1, SVG Export Plug-In . SVG Version: 6.00 Build 0)  -->
<svg version="1.1" id="Layer_1" xmlns="http://www.w3.org/2000/svg" xmlns:xlink="http://www.w3.org/1999/xlink" x="0px" y="0px"
	 viewBox="0 0 67 89.5" style="enable-background:new 0 0 67 89.5;" xml:space="preserve">
<style type="text/css">
	.st0{fill:#F7F7F7;}
	.st1{fill:#97D4D6;}
	.st2{fill:none;}
	.st3{fill:#FFB180;}
	.st4{fill:#FF9553;}
	.st5{fill:#39353A;}
	.st6{fill:#FFFFFF;}
	.st7{fill:#474348;}
</style>
<g>
	<polygon class="st0" points="67,74.7 44.8,59.5 1.8,68.8 0.8,76 39.7,79.3 	"/>
	<polygon class="st1" points="39.7,79.3 0.8,76 10.1,88.7 54.7,89.5 64.4,85.8 67,74.7 	"/>
</g>
<rect x="0.1" class="st2" width="66.9" height="89.5"/>
<title>ch1-right</title>
<g id="Layer_2_1_">
	<g id="background">
		<rect class="st2" width="67" height="76.1"/>
		<path class="st3" d="M36.3,67h22.2c2.3,0,4.2,1.9,4.2,4.2v0.1c0,0.6-0.5,1.1-1.1,1.1H37.3c-0.6,0-1-0.4-1-1V67L36.3,67z"/>
		<path class="st4" d="M34.2,69.2h22.2c2.3,0,4.2,1.9,4.2,4.2v0.1c0,0.6-0.5,1.1-1.1,1.1H35.2c-0.6,0-1-0.4-1-1V69.2L34.2,69.2z"/>
		<path class="st5" d="M39.8,59V39c0-6.6,5.4-12,12-12h3.4v-9.1C55.2,8,47.2,0,37.3,0H27.1C17.2,0,9.2,8,9.2,17.9v37.2
			c0,9.9,8,17.9,17.9,17.9h10.2c3.5,0,6.9-1,9.8-2.9C42.7,68.2,39.8,63.8,39.8,59z"/>
		<path class="st6" d="M55.2,55.1V27h-3.4c-6.6,0-12,5.4-12,12v20c0,4.8,2.8,9.2,7.3,11.1C52.2,66.8,55.2,61.2,55.2,55.1z"/>
		<path class="st4" d="M64.4,19.5l-10.2-1.1c-1.4-0.2-2.8,0.7-3,2.1c0,0.1,0,0.3,0,0.4v2.3c0,1.4,1.2,2.6,2.6,2.6c0.1,0,0.3,0,0.4,0
			l10.2-1.1c1.4-0.2,2.4-1.6,2.1-3C66.4,20.6,65.5,19.7,64.4,19.5z"/>
		<path class="st7" d="M40.3,29.3l0.6,0.1c3.8,0.9,6.1,4.8,5.2,8.6l-4.2,17.1c-0.9,3.8-4.8,6.1-8.6,5.2l-0.6-0.1
			c-3.8-0.9-6.1-4.8-5.2-8.6l4.2-17.1C32.6,30.7,36.5,28.4,40.3,29.3z"/>
		<circle cx="47.9" cy="14.3" r="2.3"/>
		<path class="st5" d="M15.9,42.2L15.9,42.2c2.4,0.4,4,2.6,3.6,5l-3.6,23.1c-0.4,2.4-2.6,4-5,3.6l0,0c-2.4-0.4-4-2.6-3.6-5L11,45.8
			C11.3,43.4,13.6,41.8,15.9,42.2z"/>
	</g>
</g>
</svg>
