<?xml version="1.0" encoding="utf-8"?>
<!-- Generator: Adobe Illustrator 22.0.1, SVG Export Plug-In . SVG Version: 6.00 Build 0)  -->
<svg version="1.1" id="Layer_1" xmlns="http://www.w3.org/2000/svg" xmlns:xlink="http://www.w3.org/1999/xlink" x="0px" y="0px"
	 viewBox="0 0 67 89.4" style="enable-background:new 0 0 67 89.4;" xml:space="preserve">
<style type="text/css">
	.st0{fill:#F7F7F7;}
	.st1{fill:#97D4D6;}
	.st2{fill:none;}
	.st3{fill:#474348;}
	.st4{fill:#FF9553;}
	.st5{fill:#39353A;}
</style>
<g>
	<polygon class="st0" points="67,74.7 44.8,59.5 1.8,68.8 0.8,76 39.7,79.3 	"/>
	<polygon class="st1" points="39.7,79.3 0.8,76 10.1,88.7 54.7,89.5 64.4,85.8 67,74.7 	"/>
</g>
<rect x="0.1" class="st2" width="66.9" height="89.5"/>
<title>ch1-back</title>
<g id="Layer_2_1_">
	<g id="background">
		<rect class="st2" width="67" height="76.1"/>
		<path class="st3" d="M15.1,29.3L15.1,29.3c2.7,1,4.1,4,3.1,6.7l-7.4,20.1c-1,2.7-4,4.1-6.7,3.1l0,0c-2.7-1-4.1-4-3.1-6.7l7.4-20.1
			C9.4,29.7,12.4,28.3,15.1,29.3z"/>
		<path class="st3" d="M62.9,59.2L62.9,59.2c-2.7,1-5.7-0.4-6.7-3.1L48.8,36c-1-2.7,0.4-5.7,3.1-6.7v0c2.7-1,5.7,0.4,6.7,3.1
			L66,52.5C66.9,55.2,65.6,58.2,62.9,59.2z"/>
		<path class="st4" d="M18.6,69.2h9.5c1.8,0,3.3,1.5,3.3,3.3v1.2c0,0.5-0.4,0.9-0.9,0.9c0,0,0,0,0,0H16c-0.4,0-0.8-0.3-0.8-0.8v-1.2
			C15.2,70.7,16.8,69.2,18.6,69.2C18.6,69.2,18.6,69.2,18.6,69.2z"/>
		<path class="st4" d="M38,69.2h9.5c1.8,0,3.3,1.5,3.3,3.3v1.2c0,0.5-0.4,0.9-0.9,0.9l0,0H35.4c-0.4,0-0.8-0.3-0.8-0.8v-1.2
			C34.6,70.7,36.1,69.2,38,69.2L38,69.2L38,69.2z"/>
		<path class="st5" d="M48.4,3.4c-3-2.1-6.6-3.3-10.3-3.3H27.9C18,0.1,10,8.1,10,18v37.2c0,9.9,8,17.9,17.9,17.9c0,0,0,0,0,0h10.2
			c9.9,0,17.9-8,17.9-17.9V18C56,12.2,53.2,6.7,48.4,3.4z"/>
		<path class="st5" d="M32.1,27h1.8c5.5,0,9.9,4.4,9.9,9.9v29.3c0,5.5-4.4,9.9-9.9,9.9h-1.8c-5.5,0-9.9-4.4-9.9-9.9V36.9
			C22.2,31.4,26.6,27,32.1,27z"/>
	</g>
</g>
</svg>
