<?xml version="1.0" encoding="utf-8"?>
<!-- Generator: Adobe Illustrator 22.0.1, SVG Export Plug-In . SVG Version: 6.00 Build 0)  -->
<svg version="1.1" id="Layer_1" xmlns="http://www.w3.org/2000/svg" xmlns:xlink="http://www.w3.org/1999/xlink" x="0px" y="0px"
	 viewBox="0 0 67 99.6" style="enable-background:new 0 0 67 99.6;" xml:space="preserve">
<style type="text/css">
	.st0{fill:#F7F7F7;}
	.st1{fill:#97D4D6;}
	.st2{fill:none;}
	.st3{fill:#474348;}
	.st4{fill:#FF9553;}
	.st5{fill:#39353A;}
	.st6{fill:#F4E482;}
</style>
<g>
	<polygon class="st0" points="67,84.9 44.8,69.7 1.8,79 0.8,86.2 39.7,89.5 	"/>
	<polygon class="st1" points="39.7,89.5 0.8,86.2 10.1,98.9 54.7,99.7 64.4,96 67,84.9 	"/>
</g>
<rect x="0.1" y="10.2" class="st2" width="66.9" height="89.5"/>
<title>ch1-back</title>
<g id="Layer_2_1_">
	<g id="background">
		<rect x="0.5" y="11.2" class="st2" width="66.1" height="75.1"/>
		<path class="st3" d="M15.3,40.1L15.3,40.1c2.7,1,4,3.9,3.1,6.6l-7.3,19.8c-1,2.7-3.9,4-6.6,3.1l0,0c-2.7-1-4-3.9-3.1-6.6l7.3-19.8
			C9.7,40.5,12.7,39.2,15.3,40.1z"/>
		<path class="st3" d="M62.5,69.6L62.5,69.6c-2.7,1-5.6-0.4-6.6-3.1l-7.3-19.8c-1-2.7,0.4-5.6,3.1-6.6l0,0c2.7-1,5.6,0.4,6.6,3.1
			L65.6,63C66.4,65.7,65.2,68.7,62.5,69.6z"/>
		<path class="st4" d="M18.8,79.5h9.4c1.8,0,3.3,1.5,3.3,3.3v1.2c0,0.5-0.4,0.9-0.9,0.9l0,0H16.2c-0.4,0-0.8-0.3-0.8-0.8v-1.2
			C15.4,81,17,79.5,18.8,79.5L18.8,79.5z"/>
		<path class="st4" d="M37.9,79.5h9.4c1.8,0,3.3,1.5,3.3,3.3v1.2c0,0.5-0.4,0.9-0.9,0.9l0,0H35.4c-0.4,0-0.8-0.3-0.8-0.8v-1.2
			C34.6,81,36.1,79.5,37.9,79.5L37.9,79.5L37.9,79.5z"/>
		<path class="st5" d="M48.2,14.6c-3-2.1-6.5-3.3-10.2-3.3H28c-9.8,0-17.7,7.9-17.7,17.7v36.7c0,9.8,7.9,17.7,17.7,17.7l0,0H38
			c9.8,0,17.7-7.9,17.7-17.7V29C55.7,23.3,52.9,17.8,48.2,14.6z"/>
		<path class="st5" d="M32.1,37.9h1.8c5.4,0,9.8,4.3,9.8,9.8v28.9c0,5.4-4.3,9.8-9.8,9.8h-1.8c-5.4,0-9.8-4.3-9.8-9.8V47.6
			C22.4,42.2,26.7,37.9,32.1,37.9z"/>
	</g>
</g>
<g>
	<path class="st6" d="M42.5,12.6h-18c-0.3,0-0.5-0.2-0.5-0.5V8.6C24,8.3,24.2,8,24.5,8h18C42.8,8,43,8.3,43,8.6v3.5
		C43,12.4,42.8,12.6,42.5,12.6z"/>
	<path class="st6" d="M32,0.9L27,9.4c-0.7,1.2,0.2,2.7,1.5,2.7h9.9c1.4,0,2.2-1.5,1.5-2.7L35,0.9C34.4-0.3,32.6-0.3,32,0.9z"/>
	<path class="st6" d="M25.1,10.3h4.1c0.9,0,1.4-1.1,0.8-1.8l-4.1-4.8C25.2,3.1,24,3.5,24,4.5v4.8C24,9.9,24.5,10.3,25.1,10.3z"/>
	<path class="st6" d="M41.9,10.3h-4.1c-0.9,0-1.4-1.1-0.8-1.8l4.1-4.8C41.8,3.1,43,3.5,43,4.5v4.8C43,9.9,42.5,10.3,41.9,10.3z"/>
</g>
</svg>
