<?xml version="1.0" encoding="utf-8"?>
<!-- Generator: Adobe Illustrator 22.0.1, SVG Export Plug-In . SVG Version: 6.00 Build 0)  -->
<svg version="1.1" id="Layer_1" xmlns="http://www.w3.org/2000/svg" xmlns:xlink="http://www.w3.org/1999/xlink" x="0px" y="0px"
	 viewBox="0 0 67 89.5" style="enable-background:new 0 0 67 89.5;" xml:space="preserve">
<style type="text/css">
	.st0{fill:#F7F7F7;}
	.st1{fill:#97D4D6;}
	.st2{fill:none;}
	.st3{fill:#474348;}
	.st4{fill:#39353A;}
	.st5{fill:#FFFFFF;}
	.st6{fill:#FF9553;}
	.st7{fill:#F98447;}
</style>
<g>
	<polygon class="st0" points="67,74.7 44.8,59.5 1.8,68.8 0.8,76 39.7,79.3 	"/>
	<polygon class="st1" points="39.7,79.3 0.8,76 10.1,88.7 54.7,89.5 64.4,85.8 67,74.7 	"/>
</g>
<rect x="0.1" y="0" class="st2" width="66.9" height="89.5"/>
<title>ch1-front</title>
<g id="Layer_2_1_">
	<g id="background">
		<rect y="0" class="st2" width="67" height="76.1"/>
		<path class="st3" d="M14.5,29.3L14.5,29.3c2.7,1,4.1,4,3.1,6.7l-7.4,20.1c-1,2.7-4,4.1-6.7,3.1l0,0c-2.7-1-4.1-4-3.1-6.7l7.4-20.1
			C8.8,29.7,11.8,28.3,14.5,29.3z"/>
		<path class="st3" d="M63.5,59.2L63.5,59.2c-2.7,1-5.7-0.4-6.7-3.1L49.4,36c-1-2.7,0.4-5.7,3.1-6.7l0,0c2.7-1,5.7,0.4,6.7,3.1
			l7.4,20.1C67.6,55.2,66.2,58.2,63.5,59.2z"/>
		<path class="st4" d="M48.7,3.4c-3-2.1-6.6-3.3-10.3-3.3H28.2c-9.9,0-17.9,8-17.9,17.9v37.2c0,9.9,8,17.9,17.9,17.9l0,0h10.2
			c9.9,0,17.9-8,17.9-17.9l0,0V18C56.3,12.2,53.4,6.7,48.7,3.4z"/>
		<path class="st5" d="M28.6,26H38c5.9,0,10.7,4.8,10.7,10.7v23.6C48.7,66.2,43.9,71,38,71h-9.4c-5.9,0-10.7-4.8-10.7-10.7V36.7
			C17.9,30.8,22.7,26,28.6,26z"/>
		<circle cx="27.3" cy="13.9" r="2.3"/>
		<circle cx="40.2" cy="13.9" r="2.3"/>
		<path class="st6" d="M18.9,69.2h9.5c1.8,0,3.3,1.5,3.3,3.3v1.2c0,0.5-0.4,0.9-0.9,0.9l0,0H16.3c-0.4,0-0.8-0.3-0.8-0.8v-1.2
			C15.5,70.7,17.1,69.2,18.9,69.2L18.9,69.2L18.9,69.2z"/>
		<path class="st6" d="M38.3,69.2h9.5c1.8,0,3.2,1.5,3.2,3.3v1.2c0,0.5-0.4,0.9-0.9,0.9l0,0H35.7c-0.4,0-0.8-0.3-0.8-0.8v-1.2
			C34.9,70.7,36.4,69.2,38.3,69.2L38.3,69.2L38.3,69.2z"/>
		<path class="st7" d="M32.3,16.7l-4.5,1.6c-0.7,0.3-1.1,1.1-0.8,1.8c0.1,0.2,0.2,0.4,0.4,0.6l4.1,3.5c1,0.9,2.6,0.9,3.7,0l4.1-3.5
			c0.6-0.5,0.7-1.4,0.1-2c-0.2-0.2-0.4-0.3-0.6-0.4l-4.5-1.6C33.6,16.5,32.9,16.5,32.3,16.7z"/>
	</g>
</g>
</svg>
