<?xml version="1.0" encoding="utf-8"?>
<!-- Generator: Adobe Illustrator 22.0.1, SVG Export Plug-In . SVG Version: 6.00 Build 0)  -->
<svg version="1.1" id="Layer_1" xmlns="http://www.w3.org/2000/svg" xmlns:xlink="http://www.w3.org/1999/xlink" x="0px" y="0px"
	 viewBox="0 0 67 89.5" style="enable-background:new 0 0 67 89.5;" xml:space="preserve">
<style type="text/css">
	.st0{fill:#F7F7F7;}
	.st1{fill:#97D4D6;}
	.st2{fill:none;}
	.st3{fill:#FFB180;}
	.st4{fill:#FF9553;}
	.st5{fill:#39353A;}
	.st6{fill:#FFFFFF;}
	.st7{fill:#474348;}
</style>
<g>
	<polygon class="st0" points="67,74.7 44.8,59.5 1.8,68.8 0.8,76 39.7,79.3 	"/>
	<polygon class="st1" points="39.7,79.3 0.8,76 10.1,88.7 54.7,89.5 64.4,85.8 67,74.7 	"/>
</g>
<rect x="0.1" class="st2" width="66.9" height="89.5"/>
<title>ch1-left</title>
<g id="Layer_2_1_">
	<g id="background">
		<rect class="st2" width="67" height="76.1"/>
		<path class="st3" d="M29.7,72.4H5.5c-0.6,0-1.1-0.5-1.1-1.1v-0.1c0-2.3,1.9-4.2,4.2-4.2h22.2l0,0v4.3C30.7,72,30.2,72.4,29.7,72.4
			z"/>
		<path class="st4" d="M31.8,74.5H7.6c-0.6,0-1.1-0.5-1.1-1.1v-0.1c0-2.3,1.9-4.2,4.2-4.2h22.2l0,0v4.3
			C32.8,74.1,32.4,74.5,31.8,74.5z"/>
		<path class="st5" d="M27.2,59V39c0-6.6-5.4-12-12-12h-3.4v-9.1C11.8,8,19.8,0,29.7,0h10.2c9.9,0,17.9,8,17.9,17.9c0,0,0,0,0,0
			v37.2c0,9.9-8,17.9-17.9,17.9H29.7c-3.5,0-6.9-1-9.8-2.9C24.3,68.2,27.2,63.8,27.2,59z"/>
		<path class="st6" d="M11.8,55.1V27h3.4c6.6,0,12,5.4,12,12v20c0,4.8-2.8,9.2-7.3,11.1C14.8,66.8,11.8,61.2,11.8,55.1z"/>
		<path class="st4" d="M2.6,19.5l10.2-1.1c1.4-0.3,2.8,0.7,3,2.1c0,0.2,0,0.3,0,0.5v2.3c0,1.4-1.2,2.6-2.6,2.6c-0.2,0-0.3,0-0.5,0
			L2.6,24.7c-1.4-0.2-2.4-1.6-2.1-3C0.6,20.6,1.5,19.7,2.6,19.5z"/>
		<path class="st7" d="M34.3,60.2l-0.6,0.1c-3.8,0.9-7.7-1.4-8.6-5.2l-4.2-17.1c-0.9-3.8,1.4-7.7,5.2-8.6l0.6-0.1
			c3.8-0.9,7.7,1.4,8.6,5.2l4.2,17.1C40.5,55.4,38.1,59.2,34.3,60.2z"/>
		<circle cx="19.1" cy="14.3" r="2.3"/>
		<path class="st5" d="M55.8,73.9L55.8,73.9c-2.4,0.4-4.6-1.2-5-3.6l-3.7-23.1c-0.4-2.4,1.2-4.6,3.6-5l0,0c2.4-0.4,4.6,1.2,5,3.6
			l3.7,23.1C59.8,71.3,58.2,73.5,55.8,73.9z"/>
	</g>
</g>
</svg>
