<svg xmlns="http://www.w3.org/2000/svg" viewBox="0 0 67 89.5"><defs><style>.cls-1{fill:#f7f7f7;}.cls-2{fill:#97d4d6;}.cls-3{fill:#2b2a3f;}.cls-4{fill:#fff;}.cls-5{fill:#515151;}.cls-6{fill:#ff9553;}.cls-7{fill:#f98447;}.cls-8{fill:none;}</style></defs><title>ch2-front_1</title><g id="Layer_2" data-name="Layer 2"><g id="penguin"><polygon class="cls-1" points="66.74 74.63 44.54 59.43 1.54 68.73 0.54 75.93 39.44 79.23 66.74 74.63"/><polygon class="cls-2" points="39.44 79.23 0.54 75.93 9.84 88.63 54.44 89.43 64.14 85.73 66.74 74.63 39.44 79.23"/><path class="cls-3" d="M33.5.26h0a23,23,0,0,1,23,23V54.57A18.73,18.73,0,0,1,37.77,73.3H29.23A18.73,18.73,0,0,1,10.5,54.57V23.26a23,23,0,0,1,23-23Z"/><rect class="cls-3" x="4.65" y="28.32" width="10.37" height="31.81" rx="5.19" ry="5.19" transform="translate(15.33 -0.75) rotate(19.5)"/><rect class="cls-3" x="52.03" y="28.32" width="10.37" height="31.81" rx="5.19" ry="5.19" transform="translate(125.92 66.8) rotate(160.5)"/><rect class="cls-4" x="18.45" y="4.29" width="30.11" height="26.41" rx="13.21" ry="13.21"/><rect class="cls-4" x="16.75" y="23.46" width="33.5" height="47.56" rx="16.32" ry="16.32"/><circle class="cls-5" cx="27.53" cy="14.05" r="2.31"/><circle class="cls-5" cx="40.37" cy="14.05" r="2.31"/><path class="cls-6" d="M19.14,69.52h9.51a3.27,3.27,0,0,1,3.27,3.27V74a.86.86,0,0,1-.86.86H16.52a.78.78,0,0,1-.78-.78V72.92a3.4,3.4,0,0,1,3.4-3.4Z"/><path class="cls-6" d="M38.48,69.52H48a3.27,3.27,0,0,1,3.27,3.27V74a.86.86,0,0,1-.86.86H35.87a.78.78,0,0,1-.78-.78V72.92A3.4,3.4,0,0,1,38.48,69.52Z"/><path class="cls-7" d="M32.53,16.83,28,18.48a1.41,1.41,0,0,0-.43,2.39l4.08,3.5a2.79,2.79,0,0,0,3.64,0l4.08-3.5A1.41,1.41,0,0,0,39,18.48l-4.5-1.65A2.81,2.81,0,0,0,32.53,16.83Z"/><rect class="cls-8" width="67" height="89.5"/></g></g></svg>