<?xml version="1.0" encoding="utf-8"?>
<!-- Generator: Adobe Illustrator 22.0.1, SVG Export Plug-In . SVG Version: 6.00 Build 0)  -->
<svg version="1.1" id="Layer_1" xmlns="http://www.w3.org/2000/svg" xmlns:xlink="http://www.w3.org/1999/xlink" x="0px" y="0px"
	 viewBox="0 0 67 99.7" style="enable-background:new 0 0 67 99.7;" xml:space="preserve">
<style type="text/css">
	.st0{fill:#F7F7F7;}
	.st1{fill:#97D4D6;}
	.st2{fill:none;}
	.st3{fill:#FF9553;}
	.st4{fill:#2B2A3F;}
	.st5{fill:#F4E482;}
</style>
<title>ch2-back</title>
<g id="Layer_2_1_">
	<g id="penguin">
		<polygon class="st0" points="66.7,84.8 44.5,69.6 1.5,78.9 0.5,86.1 39.4,89.4 		"/>
		<polygon class="st1" points="39.4,89.4 0.5,86.1 9.8,98.8 54.4,99.6 64.1,95.9 66.7,84.8 		"/>
		<rect y="10.2" class="st2" width="67" height="89.5"/>
		<path class="st3" d="M19.1,79.7h9.5c1.8,0,3.3,1.5,3.3,3.3v1.2c0,0.5-0.4,0.9-0.9,0.9c0,0,0,0,0,0H16.5c-0.4,0-0.8-0.3-0.8-0.8
			v-1.2C15.7,81.3,17.3,79.7,19.1,79.7z"/>
		<path class="st3" d="M38.5,79.7H48c1.8,0,3.3,1.5,3.3,3.3v1.2c0,0.5-0.4,0.9-0.9,0.9l0,0H35.9c-0.4,0-0.8-0.3-0.8-0.8v-1.2
			C35.1,81.3,36.6,79.7,38.5,79.7L38.5,79.7L38.5,79.7z"/>
		<path class="st4" d="M15.1,39.5L15.1,39.5c2.7,1,4.1,3.9,3.2,6.6l-7.2,20.2c-1,2.7-3.9,4.1-6.6,3.2h0c-2.7-1-4.1-3.9-3.2-6.6
			l7.2-20.2C9.5,39.9,12.4,38.5,15.1,39.5z"/>
		<path class="st4" d="M62.5,69.4L62.5,69.4c-2.7,1-5.7-0.5-6.6-3.2l-7.2-20.2c-1-2.7,0.5-5.7,3.2-6.6l0,0c2.7-1,5.7,0.5,6.6,3.2
			l7.2,20.2C66.7,65.5,65.2,68.5,62.5,69.4z"/>
		<path class="st4" d="M33.5,34.6L33.5,34.6c9.3,0,16.8,7.5,16.8,16.7v17.9c0,9.3-7.5,16.8-16.8,16.8l0,0c-9.3,0-16.8-7.5-16.8-16.8
			V51.3C16.8,42.1,24.2,34.6,33.5,34.6z"/>
		<path class="st4" d="M33.5,10.5L33.5,10.5c12.7,0,23,10.3,23,23v27c0,12.7-10.3,23-23,23l0,0c-12.7,0-23-10.3-23-23v-27
			C10.5,20.8,20.8,10.5,33.5,10.5z"/>
	</g>
</g>
<g>
	<path class="st5" d="M42.5,12.6h-18c-0.3,0-0.5-0.2-0.5-0.5V8.6C24,8.3,24.2,8,24.5,8h18C42.8,8,43,8.3,43,8.6v3.5
		C43,12.4,42.8,12.6,42.5,12.6z"/>
	<path class="st5" d="M32,0.9L27,9.4c-0.7,1.2,0.2,2.7,1.5,2.7h9.9c1.4,0,2.2-1.5,1.5-2.7L35,0.9C34.4-0.3,32.6-0.3,32,0.9z"/>
	<path class="st5" d="M25.1,10.3h4.1c0.9,0,1.4-1.1,0.8-1.8l-4.1-4.8C25.2,3.1,24,3.5,24,4.5v4.8C24,9.9,24.5,10.3,25.1,10.3z"/>
	<path class="st5" d="M41.9,10.3h-4.1c-0.9,0-1.4-1.1-0.8-1.8l4.1-4.8C41.8,3.1,43,3.5,43,4.5v4.8C43,9.9,42.5,10.3,41.9,10.3z"/>
</g>
</svg>
