<svg xmlns="http://www.w3.org/2000/svg" viewBox="0 0 67 89.5"><defs><style>.cls-1{fill:#f7f7f7;}.cls-2{fill:#97d4d6;}.cls-3{fill:none;}.cls-4{fill:#ff9553;}.cls-5{fill:#2b2a3f;}</style></defs><title>ch2-back</title><g id="Layer_2" data-name="Layer 2"><g id="penguin"><polygon class="cls-1" points="66.74 74.63 44.54 59.43 1.54 68.73 0.54 75.93 39.44 79.23 66.74 74.63"/><polygon class="cls-2" points="39.44 79.23 0.54 75.93 9.84 88.63 54.44 89.43 64.14 85.73 66.74 74.63 39.44 79.23"/><rect class="cls-3" width="67" height="89.5"/><path class="cls-4" d="M19.14,69.53h9.51a3.27,3.27,0,0,1,3.27,3.27V74a.86.86,0,0,1-.86.86H16.52a.78.78,0,0,1-.78-.78V72.92A3.4,3.4,0,0,1,19.14,69.53Z"/><path class="cls-4" d="M38.48,69.53H48a3.27,3.27,0,0,1,3.27,3.27V74a.86.86,0,0,1-.86.86H35.87a.78.78,0,0,1-.78-.78V72.92a3.4,3.4,0,0,1,3.4-3.4Z"/><rect class="cls-5" x="4.65" y="28.32" width="10.37" height="31.81" rx="5.19" ry="5.19" transform="translate(15.33 -0.74) rotate(19.5)"/><rect class="cls-5" x="52.03" y="28.32" width="10.37" height="31.81" rx="5.19" ry="5.19" transform="translate(125.93 66.82) rotate(160.5)"/><rect class="cls-5" x="16.75" y="24.38" width="33.5" height="51.4" rx="16.75" ry="16.75"/><rect class="cls-5" x="10.5" y="0.26" width="46" height="73.04" rx="23" ry="23"/></g></g></svg>