<svg xmlns="http://www.w3.org/2000/svg" viewBox="0 0 67 89.5"><defs><style>.cls-1{fill:#f7f7f7;}.cls-2{fill:#97d4d6;}.cls-3{fill:none;}.cls-4{fill:#ffb587;}.cls-5{fill:#ff9553;}.cls-6{fill:#2b2a3f;}.cls-7{fill:#fff;}.cls-8{fill:#515151;}.cls-9{fill:#3e3d50;}</style></defs><title>ch2-left</title><g id="Layer_2" data-name="Layer 2"><g id="penguin"><polygon class="cls-1" points="66.74 74.63 44.54 59.43 1.54 68.73 0.54 75.93 39.44 79.23 66.74 74.63"/><polygon class="cls-2" points="39.44 79.23 0.54 75.93 9.84 88.63 54.44 89.43 64.14 85.73 66.74 74.63 39.44 79.23"/><rect class="cls-3" width="67" height="89.5"/><path class="cls-4" d="M11,67.86H35.22a1.1,1.1,0,0,1,1.1,1.1V69a4.17,4.17,0,0,1-4.17,4.17H10a0,0,0,0,1,0,0V68.86a1,1,0,0,1,1-1Z" transform="translate(46.3 141.06) rotate(-180)"/><path class="cls-5" d="M14.82,69.33H39a1.1,1.1,0,0,1,1.1,1.1v.06A4.17,4.17,0,0,1,36,74.66H13.82a0,0,0,0,1,0,0V70.33A1,1,0,0,1,14.82,69.33Z" transform="translate(53.96 143.99) rotate(-180)"/><rect class="cls-6" x="10.87" y="28.12" width="10.37" height="31.81" rx="5.19" ry="5.19" transform="translate(15.62 -2.83) rotate(19.5)"/><path class="cls-6" d="M35.81,54.5V39.59a16.26,16.26,0,0,0-5.5-12.2,11.7,11.7,0,0,0,3.81-8.64v-2.9A11.76,11.76,0,0,0,22.36,4.09h-.7a19.65,19.65,0,0,1,11.91-4h3.27a23,23,0,0,1,23,23V54.38A18.74,18.74,0,0,1,41.11,73.11H32.57A18.58,18.58,0,0,1,23,70.43,16.3,16.3,0,0,0,35.81,54.5Z"/><path class="cls-7" d="M23,70.43l-.43.1a17.88,17.88,0,0,1-8.69-15.34v-.81A18.69,18.69,0,0,0,23,70.43Z"/><path class="cls-7" d="M21.66,4.09h.7A11.76,11.76,0,0,1,34.12,15.85v2.9a11.7,11.7,0,0,1-3.81,8.64,16.26,16.26,0,0,1,5.5,12.2V54.5A16.3,16.3,0,0,1,23,70.43a18.69,18.69,0,0,1-9.12-16.05V19.8A19.68,19.68,0,0,1,21.66,4.09Z"/><circle class="cls-8" cx="21.39" cy="13.86" r="2.31"/><rect class="cls-9" x="34.09" y="28.65" width="13.52" height="31.81" rx="6.76" ry="6.76" transform="translate(94.24 72.92) rotate(160.5)"/><path class="cls-5" d="M5.78,17.34,16,16.21a2.62,2.62,0,0,1,3.07,2.58v2.26A2.61,2.61,0,0,1,16,23.62L5.78,22.49A2.62,2.62,0,0,1,5.78,17.34Z"/></g></g></svg>