<svg xmlns="http://www.w3.org/2000/svg" viewBox="0 0 67 89.5"><defs><style>.cls-1{fill:#f7f7f7;}.cls-2{fill:#97d4d6;}.cls-3{fill:none;}.cls-4{fill:#ffb587;}.cls-5{fill:#ff9553;}.cls-6{fill:#2b2a3f;}.cls-7{fill:#fff;}.cls-8{fill:#515151;}.cls-9{fill:#3e3d50;}</style></defs><title>ch2-right</title><g id="Layer_2" data-name="Layer 2"><g id="penguin"><polygon class="cls-1" points="66.74 74.63 44.54 59.43 1.54 68.73 0.54 75.93 39.44 79.23 66.74 74.63"/><polygon class="cls-2" points="39.44 79.23 0.54 75.93 9.84 88.63 54.44 89.43 64.14 85.73 66.74 74.63 39.44 79.23"/><rect class="cls-3" width="67" height="89.5"/><path class="cls-4" d="M30.88,68H53a4.17,4.17,0,0,1,4.17,4.17v.06a1.1,1.1,0,0,1-1.1,1.1H31.88a1,1,0,0,1-1-1V68A0,0,0,0,1,30.88,68Z"/><path class="cls-5" d="M27,69.43H49.21a4.17,4.17,0,0,1,4.17,4.17v.06a1.1,1.1,0,0,1-1.1,1.1H28a1,1,0,0,1-1-1V69.43a0,0,0,0,1,0,0Z"/><rect class="cls-6" x="45.95" y="28.22" width="10.37" height="31.81" rx="5.19" ry="5.19" transform="translate(114.08 68.65) rotate(160.5)"/><path class="cls-6" d="M31.38,54.6V39.69a16.29,16.29,0,0,1,5.5-12.2,11.72,11.72,0,0,1-3.8-8.64V16A11.76,11.76,0,0,1,44.83,4.19h.71a19.65,19.65,0,0,0-11.91-4H30.36a23,23,0,0,0-23,23V54.48A18.74,18.74,0,0,0,26.09,73.21h8.54a18.58,18.58,0,0,0,9.61-2.68A16.3,16.3,0,0,1,31.38,54.6Z"/><path class="cls-7" d="M44.24,70.53l.42.1a17.87,17.87,0,0,0,8.7-15.34v-.81A18.69,18.69,0,0,1,44.24,70.53Z"/><path class="cls-7" d="M45.54,4.19h-.71A11.76,11.76,0,0,0,33.08,16v2.9a11.72,11.72,0,0,0,3.8,8.64,16.29,16.29,0,0,0-5.5,12.2V54.6A16.3,16.3,0,0,0,44.24,70.53a18.69,18.69,0,0,0,9.12-16.05V19.9A19.7,19.7,0,0,0,45.54,4.19Z"/><circle class="cls-8" cx="45.81" cy="13.96" r="2.31"/><rect class="cls-9" x="19.58" y="28.75" width="13.52" height="31.81" rx="6.76" ry="6.76" transform="translate(16.42 -6.23) rotate(19.5)"/><path class="cls-5" d="M61.41,17.44,51.19,16.31a2.62,2.62,0,0,0-3.07,2.58v2.26a2.61,2.61,0,0,0,3.07,2.57l10.22-1.13A2.61,2.61,0,0,0,61.41,17.44Z"/></g></g></svg>