<svg xmlns="http://www.w3.org/2000/svg" viewBox="0 0 39.56 49.07"><defs><style>.cls-1{fill:#e57b41;}.cls-2{fill:#ff9553;}.cls-3{fill:#39353a;}.cls-4{fill:#fff;}.cls-5{fill:#515151;}</style></defs><title>Cha1</title><g id="Layer_2" data-name="Layer 2"><g id="penguin"><path class="cls-1" d="M19.12,44.71H33.79a2.9,2.9,0,0,1,2.9,2.9v.2a.76.76,0,0,1-.76.76H19.81a.69.69,0,0,1-.69-.69V44.71a0,0,0,0,1,0,0Z"/><path class="cls-2" d="M17.86,45.51H32.64a2.78,2.78,0,0,1,2.78,2.78v0a.73.73,0,0,1-.73.73H18.53a.67.67,0,0,1-.67-.67V45.51A0,0,0,0,1,17.86,45.51Z"/><path class="cls-3" d="M19.12,38.67V9A6.83,6.83,0,0,1,26,2.19H27.9A11.89,11.89,0,0,0,21,0H14.24a12,12,0,0,0-12,12V36.78a12,12,0,0,0,12,11.95H21a11.91,11.91,0,0,0,8.15-3.22H26A6.84,6.84,0,0,1,19.12,38.67Z"/><path class="cls-4" d="M33,36.78V12A11.92,11.92,0,0,0,27.9,2.19H26A6.83,6.83,0,0,0,19.12,9V38.67A6.84,6.84,0,0,0,26,45.51h3.21A11.9,11.9,0,0,0,33,36.78Z"/><rect class="cls-5" x="14.27" y="19.28" width="9.9" height="21.23" rx="4.75" ry="4.75" transform="translate(7.73 -3.74) rotate(13.88)"/><rect class="cls-3" x="1.22" y="26.88" width="5.79" height="21.37" rx="2.9" ry="2.9" transform="translate(5.92 -0.18) rotate(8.99)"/><path class="cls-2" d="M38.12,13l-6.82-.75A1.74,1.74,0,0,0,29.25,14v1.51a1.74,1.74,0,0,0,2.05,1.71l6.82-.75A1.75,1.75,0,0,0,38.12,13Z"/><circle class="cls-5" cx="26.9" cy="9.51" r="1.54"/></g></g></svg>