<?xml version="1.0" encoding="utf-8"?>
<!-- Generator: Adobe Illustrator 22.0.1, SVG Export Plug-In . SVG Version: 6.00 Build 0)  -->
<svg version="1.1" id="Layer_1" xmlns="http://www.w3.org/2000/svg" xmlns:xlink="http://www.w3.org/1999/xlink" x="0px" y="0px"
	 viewBox="0 0 496.8 375.2" style="enable-background:new 0 0 496.8 375.2;" xml:space="preserve">
<style type="text/css">
	.st0{fill:#C0CCC7;}
	.st1{fill:#B2BFB9;}
	.st2{fill:#D3DDD9;}
	.st3{fill:#5C605F;}
	.st4{fill:#464948;}
</style>
<path class="st0" d="M326.4,169.1c0,8.8-7.2,16.8-16.8,16.8h-124c-8.8,0-16.8-7.2-16.8-16.8v-124c0-8.8,7.2-16.8,16.8-16.8h124
	c8.8,0,16.8,7.2,16.8,16.8V169.1z"/>
<g>
	<path class="st1" d="M326.4,169.1c0,8.8-7.2,16.8-16.8,16.8h-124c-8.8,0-16.8-7.2-16.8-16.8"/>
	<path class="st1" d="M169.6,45.1c0-8.8,7.2-16.8,16.8-16.8h124c8.8,0,16.8,7.2,16.8,16.8v124c0,8.8-7.2,16.8-16.8,16.8"/>
</g>
<path class="st2" d="M169.6,45.1c0-8.8,7.2-16.8,16.8-16.8h124c8.8,0,16.8,7.2,16.8,16.8"/>
<path class="st3" d="M274.4,139.5l-23.2-36c-1.6-2.4-5.6-2.4-7.2,0l-22.4,36.8c-0.8,1.6-0.8,3.2,0,4c0.8,1.6,2.4,2.4,4,2.4h44.8
	c1.6,0,3.2-0.8,4-2.4C275.2,142.7,274.4,141.1,274.4,139.5z"/>
<path class="st4" d="M251.2,117.9c-1.6-2.4-5.6-2.4-7.2,0l-16.8,28h41.6L251.2,117.9z"/>
<path class="st0" d="M326.4,337.9c0,8.8-7.2,16.8-16.8,16.8h-124c-8.8,0-16.8-7.2-16.8-16.8v-124c0-8.8,7.2-16.8,16.8-16.8h124
	c8.8,0,16.8,7.2,16.8,16.8V337.9z"/>
<g>
	<path class="st1" d="M326.4,337.9c0,8.8-7.2,16.8-16.8,16.8h-124c-8.8,0-16.8-7.2-16.8-16.8"/>
	<path class="st1" d="M169.6,213.9c0-8.8,7.2-16.8,16.8-16.8h124c8.8,0,16.8,7.2,16.8,16.8v124c0,8.8-7.2,16.8-16.8,16.8"/>
</g>
<path class="st2" d="M169.6,213.9c0-8.8,7.2-16.8,16.8-16.8h124c8.8,0,16.8,7.2,16.8,16.8"/>
<path class="st3" d="M221.6,275.5l22.4,36.8c1.6,2.4,5.6,2.4,7.2,0l22.4-36.8c0.8-1.6,0.8-3.2,0-4c-0.8-1.6-2.4-2.4-4-2.4h-44.8
	c-1.6,0-3.2,0.8-4,2.4C220.8,273.1,221.6,274.7,221.6,275.5z"/>
<path class="st4" d="M244.8,297.1c1.6,2.4,5.6,2.4,7.2,0l16.8-28h-41.6L244.8,297.1z"/>
<path class="st0" d="M156.8,337.9c0,8.8-7.2,16.8-16.8,16.8H16.8C8,354.7,0,347.5,0,337.9v-124c0-8.8,7.2-16.8,16.8-16.8h124
	c8.8,0,16.8,7.2,16.8,16.8v124H156.8z"/>
<g>
	<path class="st1" d="M156.8,337.9c0,8.8-7.2,16.8-16.8,16.8H16.8C8,354.7,0,347.5,0,337.9"/>
	<path class="st1" d="M0,213.9c0-8.8,7.2-16.8,16.8-16.8h124c8.8,0,16.8,7.2,16.8,16.8v124c0,8.8-7.2,16.8-16.8,16.8"/>
</g>
<path class="st2" d="M0,213.9c0-8.8,7.2-16.8,16.8-16.8h124c8.8,0,16.8,7.2,16.8,16.8"/>
<path class="st3" d="M94.4,265.9l-36.8,22.4c-2.4,1.6-2.4,5.6,0,7.2l36.8,22.4c1.6,0.8,3.2,0.8,4,0c1.6-0.8,2.4-2.4,2.4-3.2v-44.8
	c0-1.6-0.8-3.2-2.4-4C97.6,265.1,96,265.1,94.4,265.9z"/>
<path class="st4" d="M72.8,288.3c-2.4,1.6-2.4,5.6,0,7.2l28,16.8v-41.6L72.8,288.3z"/>
<path class="st0" d="M496,337.9c0,8.8-7.2,16.8-16.8,16.8h-124c-8.8,0-16.8-7.2-16.8-16.8v-124c0-8.8,7.2-16.8,16.8-16.8h124
	c8.8,0,16.8,7.2,16.8,16.8V337.9z"/>
<g>
	<path class="st1" d="M496,337.9c0,8.8-7.2,16.8-16.8,16.8h-124c-8.8,0-16.8-7.2-16.8-16.8"/>
	<path class="st1" d="M339.2,213.9c0-8.8,7.2-16.8,16.8-16.8h124c8.8,0,16.8,7.2,16.8,16.8v124c0,8.8-7.2,16.8-16.8,16.8"/>
</g>
<path class="st2" d="M339.2,213.9c0-8.8,7.2-16.8,16.8-16.8h124c8.8,0,16.8,7.2,16.8,16.8"/>
<path class="st3" d="M401.6,317.9l36.8-22.4c2.4-1.6,2.4-5.6,0-7.2l-36.8-22.4c-1.6-0.8-3.2-0.8-4,0s-2.4,2.4-2.4,4v44.8
	c0,1.6,0.8,3.2,2.4,4S400,318.7,401.6,317.9z"/>
<path class="st4" d="M423.2,295.5c2.4-1.6,2.4-5.6,0-7.2l-28-16.8v41.6L423.2,295.5z"/>
</svg>
