<svg xmlns="http://www.w3.org/2000/svg" viewBox="0 0 18.02 11.96"><defs><style>.cls-1{fill:#f4e482;}.cls-2{fill:#6fd5d8;}.cls-3{fill:#5ac9d1;}.cls-4{fill:#46b9bc;}</style></defs><title>crown</title><g id="Layer_2" data-name="Layer 2"><g id="background"><rect class="cls-1" y="7.62" width="18.02" height="4.35" rx="0.5" ry="0.5"/><path class="cls-1" d="M7.55.84,2.88,8.93a1.69,1.69,0,0,0,1.46,2.52h9.34a1.68,1.68,0,0,0,1.45-2.52L10.47.84A1.69,1.69,0,0,0,7.55.84Z"/><path class="cls-1" d="M1,9.79H4.86a1,1,0,0,0,.77-1.67L1.79,3.61A1,1,0,0,0,0,4.27v4.5A1,1,0,0,0,1,9.79Z"/><path class="cls-1" d="M17,9.79H13.16a1,1,0,0,1-.77-1.67l3.84-4.51A1,1,0,0,1,18,4.27v4.5A1,1,0,0,1,17,9.79Z"/><path class="cls-2" d="M9.17,4.9a.8.8,0,0,0-.69.38L7.08,7.53A.75.75,0,0,0,7,8H9.17Z"/><path class="cls-3" d="M7,8a.8.8,0,0,0,.13.44l1.4,2.25a.82.82,0,0,0,.69.38V8Z"/><path class="cls-4" d="M9.17,11a.83.83,0,0,0,.7-.38l1.4-2.25A.8.8,0,0,0,11.4,8H9.17Z"/><path class="cls-3" d="M9.87,5.28a.8.8,0,0,0-.7-.38V8H11.4a.75.75,0,0,0-.13-.43Z"/></g></g></svg>