<svg xmlns="http://www.w3.org/2000/svg" viewBox="0 0 70.02 26.76"><defs><style>.cls-1{isolation:isolate;}.cls-2{fill:#00a99d;}.cls-3{fill:#fceb88;}.cls-4{fill:#4ac2b9;}.cls-5{fill:#494949;stroke:#6f94a8;stroke-width:0.75px;}.cls-5,.cls-9{stroke-miterlimit:10;}.cls-6{fill:#e88756;}.cls-7{fill:#b23967;}.cls-8{fill:#b7693d;mix-blend-mode:difference;}.cls-9{fill:#436c8e;stroke:#436c8e;}.cls-10,.cls-9{stroke-width:0.65px;}.cls-10{fill:none;stroke:#294659;stroke-linecap:round;stroke-linejoin:round;}.cls-11{fill:#26255e;}.cls-12{fill:#77181f;}.cls-13{fill:#404040;}</style></defs><title>fish-ins_1</title><g class="cls-1"><g id="Layer_2" data-name="Layer 2"><g id="penguin"><path class="cls-2" d="M29.59,23.12c-1.93,0-3.49-1.87-3.49-4.18s1.56-4.18,3.49-4.18Z"/><path class="cls-3" d="M0,18.94c0,3.57,4,6.57,9.42,7.51V18.94Z"/><path class="cls-4" d="M9.42,18.94v7.51a21.33,21.33,0,0,0,3.63.31c7.21,0,13.05-3.5,13.05-7.82Z"/><path class="cls-2" d="M14.45,20.78c0,1.74-1.57,3.22-3.71,3.68V20.78Z"/><circle class="cls-5" cx="3.93" cy="18.94" r="1.15"/><path class="cls-6" d="M70,22.45c-1.93,0-3.49-1.87-3.49-4.18s1.56-4.18,3.49-4.18Z"/><path class="cls-6" d="M40.43,18.27c0,3.56,4,6.57,9.42,7.51V18.27Z"/><path class="cls-7" d="M49.85,18.27v7.51a21.24,21.24,0,0,0,3.63.31c7.21,0,13.05-3.5,13.05-7.82Z"/><path class="cls-8" d="M54.87,20.11c0,1.74-1.56,3.21-3.7,3.68V20.11Z"/><circle class="cls-9" cx="44.35" cy="18.27" r="1.15"/><line class="cls-10" x1="45.07" y1="17.58" x2="43.69" y2="18.96"/><line class="cls-10" x1="43.64" y1="17.58" x2="45.02" y2="18.96"/><path class="cls-11" d="M10.71,16.25a.51.51,0,0,1-.2.05l-.29,0a.87.87,0,0,1-.44-.1c-.1-.06-.14-.2-.14-.4v-.77H8.58a.76.76,0,0,1-.08-.2,1.15,1.15,0,0,1,0-.26.47.47,0,0,1,.11-.36.38.38,0,0,1,.3-.12h.76V12.93l.21,0,.28,0a.83.83,0,0,1,.43.1.48.48,0,0,1,.15.42v.73h1c0,.06.05.13.07.21a.69.69,0,0,1,0,.25.5.5,0,0,1-.11.36.38.38,0,0,1-.29.12h-.75Z"/><path class="cls-11" d="M13,13.48l-.7.22a1,1,0,0,1-.21-.2.52.52,0,0,1-.11-.35c0-.28.17-.47.51-.59l.79-.26h.26a.6.6,0,0,1,.65.65V16.6l-.23,0a1.55,1.55,0,0,1-.31,0l-.27,0a.5.5,0,0,1-.21-.09.45.45,0,0,1-.13-.17.75.75,0,0,1,0-.28Z"/><path class="cls-11" d="M18.68,14.47a3.13,3.13,0,0,1-.14,1,2,2,0,0,1-.39.71,1.58,1.58,0,0,1-.59.43,1.9,1.9,0,0,1-.76.14,1.94,1.94,0,0,1-.76-.14,1.58,1.58,0,0,1-.59-.43,2.11,2.11,0,0,1-.39-.71,3.57,3.57,0,0,1,0-1.91,2.06,2.06,0,0,1,.39-.7,1.58,1.58,0,0,1,.59-.43,1.94,1.94,0,0,1,.76-.15,1.91,1.91,0,0,1,.76.15,1.58,1.58,0,0,1,.59.43,1.9,1.9,0,0,1,.39.7A3.11,3.11,0,0,1,18.68,14.47Zm-1.2,0a2.06,2.06,0,0,0-.18-1,.54.54,0,0,0-1,0,2.07,2.07,0,0,0-.17,1,2.12,2.12,0,0,0,.17,1,.54.54,0,0,0,1,0A2.1,2.1,0,0,0,17.48,14.47Z"/><path class="cls-12" d="M49.6,15.3a1.29,1.29,0,0,1-.09-.2.84.84,0,0,1,0-.27.48.48,0,0,1,.12-.37.41.41,0,0,1,.3-.12h1.5a1.29,1.29,0,0,1,.09.2.84.84,0,0,1,0,.27.48.48,0,0,1-.11.37.43.43,0,0,1-.31.12Z"/><path class="cls-12" d="M52.68,13.48l-.7.22a1,1,0,0,1-.21-.2.52.52,0,0,1-.1-.35c0-.28.17-.47.51-.59L53,12.3h.26a.6.6,0,0,1,.65.65V16.6l-.23,0a1.53,1.53,0,0,1-.3,0l-.28,0a.5.5,0,0,1-.21-.09.43.43,0,0,1-.12-.17.59.59,0,0,1,0-.28Z"/><path class="cls-12" d="M58.34,14.47a2.85,2.85,0,0,1-.14,1,2,2,0,0,1-.39.71,1.58,1.58,0,0,1-.59.43,2.11,2.11,0,0,1-1.51,0,1.7,1.7,0,0,1-.6-.43,2.09,2.09,0,0,1-.38-.71,3.33,3.33,0,0,1,0-1.91,2,2,0,0,1,.38-.7,1.7,1.7,0,0,1,.6-.43,2,2,0,0,1,1.51,0,1.58,1.58,0,0,1,.59.43,1.9,1.9,0,0,1,.39.7A2.83,2.83,0,0,1,58.34,14.47Zm-1.19,0a2.06,2.06,0,0,0-.18-1,.56.56,0,0,0-.51-.33.54.54,0,0,0-.5.33,2.07,2.07,0,0,0-.17,1,2.12,2.12,0,0,0,.17,1,.53.53,0,0,0,.5.34.55.55,0,0,0,.51-.34A2.1,2.1,0,0,0,57.15,14.47Z"/><path class="cls-13" d="M28.29,1.27a1.19,1.19,0,0,0-1,.5,2.31,2.31,0,0,0-.37,1.4c0,1.25.47,1.87,1.41,1.87a4.31,4.31,0,0,0,1.42-.29v1A3.81,3.81,0,0,1,28.17,6a2.31,2.31,0,0,1-1.86-.74,3.13,3.13,0,0,1-.65-2.12A3.45,3.45,0,0,1,26,1.64a2.24,2.24,0,0,1,.91-1,2.74,2.74,0,0,1,1.4-.35,3.75,3.75,0,0,1,1.63.39l-.38,1a5.59,5.59,0,0,0-.63-.26A1.73,1.73,0,0,0,28.29,1.27Z"/><path class="cls-13" d="M32,6H30.81V0H32Z"/><path class="cls-13" d="M33.15.57c0-.38.22-.57.64-.57s.63.19.63.57a.57.57,0,0,1-.15.42.69.69,0,0,1-.48.15C33.37,1.14,33.15,1,33.15.57ZM34.37,6H33.2V1.68h1.17Z"/><path class="cls-13" d="M37.33,6c-1.33,0-2-.73-2-2.19a2.36,2.36,0,0,1,.54-1.67,2,2,0,0,1,1.56-.57,2.89,2.89,0,0,1,1.33.29l-.35.9-.51-.18a1.58,1.58,0,0,0-.47-.07c-.61,0-.91.43-.91,1.29s.3,1.26.91,1.26A2.06,2.06,0,0,0,38.06,5a2.19,2.19,0,0,0,.57-.29v1a1.68,1.68,0,0,1-.57.25A3,3,0,0,1,37.33,6Z"/><path class="cls-13" d="M40.75,3.63,41.26,3l1.19-1.3h1.32l-1.7,1.85L43.87,6H42.53L41.29,4.22l-.5.4V6H39.63V0h1.16V2.66l-.06,1Z"/><path class="cls-13" d="M44.32,5.41a.66.66,0,0,1,.17-.49A.73.73,0,0,1,45,4.76a.59.59,0,0,1,.66.65.64.64,0,0,1-.17.47.67.67,0,0,1-.49.18.7.7,0,0,1-.5-.17A.65.65,0,0,1,44.32,5.41ZM45.47,4.1h-.94L44.34.36h1.32Z"/></g></g></g></svg>