<?xml version="1.0" encoding="utf-8"?>
<!-- Generator: Adobe Illustrator 22.0.1, SVG Export Plug-In . SVG Version: 6.00 Build 0)  -->
<svg version="1.1" id="Layer_1" xmlns="http://www.w3.org/2000/svg" xmlns:xlink="http://www.w3.org/1999/xlink" x="0px" y="0px"
	 viewBox="0 0 67 89.5" style="enable-background:new 0 0 67 89.5;" xml:space="preserve">
<style type="text/css">
	.st0{clip-path:url(#SVGID_2_);fill:none;}
	.st1{clip-path:url(#SVGID_2_);}
	.st2{fill:none;}
	.st3{fill:#474348;}
	.st4{fill:#39353A;}
	.st5{fill:#FFFFFF;}
	.st6{fill:#FF9553;}
	.st7{fill:#F98447;}
	.st8{fill:#F4E482;}
	.st9{fill:#6FD5D8;}
	.st10{fill:#5AC9D1;}
	.st11{fill:#46B9BC;}
</style>
<defs>
	<circle id="SVGID_1_" cx="33.6" cy="26.8" r="24.1"/>
</defs>
<clipPath id="SVGID_2_">
	<use xlink:href="#SVGID_1_"  style="overflow:visible;"/>
</clipPath>
<rect x="0.1" y="12.9" class="st0" width="66.9" height="89.5"/>
<title>ch1-front</title>
<g id="Layer_2_1_" class="st1">
	<g id="background">
		<rect y="12.9" class="st2" width="67" height="76.1"/>
		<path class="st3" d="M14.5,42.2L14.5,42.2c2.7,1,4.1,4,3.1,6.7L10.2,69c-1,2.7-4,4.1-6.7,3.1h0c-2.7-1-4.1-4-3.1-6.7l7.4-20.1
			C8.8,42.6,11.8,41.2,14.5,42.2z"/>
		<path class="st3" d="M63.5,72L63.5,72c-2.7,1-5.7-0.4-6.7-3.1l-7.4-20.1c-1-2.7,0.4-5.7,3.1-6.7h0c2.7-1,5.7,0.4,6.7,3.1l7.4,20.1
			C67.6,68.1,66.2,71,63.5,72z"/>
		<path class="st4" d="M48.7,16.3c-3-2.1-6.6-3.3-10.3-3.3H28.2c-9.9,0-17.9,8-17.9,17.9v37.2c0,9.9,8,17.9,17.9,17.9l0,0h10.2
			c9.9,0,17.9-8,17.9-17.9c0,0,0,0,0,0V30.9C56.3,25.1,53.4,19.6,48.7,16.3z"/>
		<path class="st5" d="M28.6,38.8H38c5.9,0,10.7,4.8,10.7,10.7v23.6c0,5.9-4.8,10.7-10.7,10.7h-9.4c-5.9,0-10.7-4.8-10.7-10.7V49.6
			C17.9,43.6,22.7,38.8,28.6,38.8z"/>
		<circle cx="27.3" cy="26.8" r="2.3"/>
		<circle cx="40.2" cy="26.8" r="2.3"/>
		<path class="st6" d="M18.9,82h9.5c1.8,0,3.3,1.5,3.3,3.3v1.2c0,0.5-0.4,0.9-0.9,0.9c0,0,0,0,0,0H16.3c-0.4,0-0.8-0.3-0.8-0.8v-1.2
			C15.5,83.5,17.1,82,18.9,82L18.9,82L18.9,82z"/>
		<path class="st6" d="M38.3,82h9.5c1.8,0,3.2,1.5,3.2,3.3v1.2c0,0.5-0.4,0.9-0.9,0.9l0,0H35.7c-0.4,0-0.8-0.3-0.8-0.8v-1.2
			C34.9,83.5,36.4,82,38.3,82L38.3,82L38.3,82z"/>
		<path class="st7" d="M32.3,29.6l-4.5,1.6c-0.7,0.3-1.1,1.1-0.8,1.8c0.1,0.2,0.2,0.4,0.4,0.6l4.1,3.5c1,0.9,2.6,0.9,3.7,0l4.1-3.5
			c0.6-0.5,0.7-1.4,0.1-2c-0.2-0.2-0.4-0.3-0.6-0.4l-4.5-1.6C33.6,29.3,32.9,29.3,32.3,29.6z"/>
	</g>
</g>
<g class="st1">
	<path class="st8" d="M41.8,14.9h-17c-0.3,0-0.5-0.2-0.5-0.5v-3.3c0-0.3,0.2-0.5,0.5-0.5h17c0.3,0,0.5,0.2,0.5,0.5v3.3
		C42.3,14.7,42.1,14.9,41.8,14.9z"/>
	<path class="st8" d="M31.8,3.8l-4.7,8.1c-0.6,1.1,0.2,2.5,1.5,2.5H38c1.3,0,2.1-1.4,1.5-2.5l-4.7-8.1C34.1,2.7,32.5,2.7,31.8,3.8z"
		/>
	<path class="st8" d="M25.3,12.8h3.8c0.9,0,1.3-1,0.8-1.7l-3.8-4.5c-0.6-0.7-1.8-0.3-1.8,0.7v4.5C24.3,12.3,24.7,12.8,25.3,12.8z"/>
	<path class="st8" d="M41.3,12.8h-3.8c-0.9,0-1.3-1-0.8-1.7l3.8-4.5c0.6-0.7,1.8-0.3,1.8,0.7v4.5C42.3,12.3,41.8,12.8,41.3,12.8z"/>
	<g>
		<path class="st9" d="M33.5,7.9c-0.3,0-0.5,0.1-0.7,0.4l-1.4,2.3c-0.1,0.1-0.1,0.3-0.1,0.4h2.2V7.9z"/>
		<path class="st10" d="M31.2,10.9c0,0.1,0,0.3,0.1,0.4l1.4,2.3c0.2,0.3,0.4,0.4,0.7,0.4v-3.1H31.2z"/>
		<path class="st11" d="M33.5,14c0.3,0,0.5-0.1,0.7-0.4l1.4-2.3c0.1-0.1,0.1-0.3,0.1-0.4h-2.2V14z"/>
		<path class="st10" d="M34.1,8.3C34,8,33.7,7.9,33.5,7.9v3.1h2.2c0-0.1,0-0.3-0.1-0.4L34.1,8.3z"/>
	</g>
</g>
</svg>
